{"glyphs":{" ":{"ha":694,"x_min":0,"x_max":0,"o":""},"H":{"ha":639,"x_min":0,"x_max":639,"o":"m 443 0 l 407 229 l 318 213 l 301 17 l 35 17 l 0 974 l 318 922 l 301 461 l 389 478 l 372 974 l 621 974 l 639 17 l 443 0 l 443 0 z "},"I":{"ha":311,"x_min":0,"x_max":311,"o":"m 38 1 l 0 954 l 311 972 l 257 1 l 38 1 l 38 1 z "},"J":{"ha":688,"x_min":-8,"x_max":690,"o":"m 385 960 q 488 968 438 964 q 576 974 531 971 q 657 978 622 978 q 680 769 669 883 q 685 541 690 656 q 653 319 681 426 q 567 132 626 213 q 426 24 499 51 q 286 10 354 -4 q 160 73 218 24 q 62 193 101 122 q 7 350 22 264 q 10 526 -8 436 l 258 453 q 250 389 251 428 q 260 317 249 350 q 301 265 272 283 q 385 258 331 246 q 438 310 421 267 q 458 416 454 353 q 453 555 461 479 q 434 706 446 631 q 408 847 422 781 q 385 960 394 914 z "},"K":{"ha":675,"x_min":0,"x_max":675,"o":"m 675 888 l 372 408 l 657 160 l 444 0 l 249 231 l 249 18 l 36 0 l 0 978 l 285 978 l 267 639 l 408 942 l 675 888 l 675 888 z "},"L":{"ha":478,"x_min":0,"x_max":478,"o":"m 18 974 l 301 974 l 247 353 l 478 407 l 442 51 l 0 0 l 18 974 l 18 974 z "},"M":{"ha":850,"x_min":0,"x_max":850,"o":"m 776 972 l 850 -3 l 525 15 l 544 288 l 433 51 l 308 288 l 308 15 l 0 -3 l 74 954 l 272 972 l 415 593 l 578 954 l 776 972 l 776 972 z "},"N":{"ha":615,"x_min":0,"x_max":615,"o":"m 272 975 l 379 704 l 379 975 l 597 975 l 615 -1 l 397 -1 l 325 144 l 325 -1 l 0 -1 l 72 975 l 272 975 z "},"O":{"ha":692,"x_min":0,"x_max":692,"o":"m 358 825 q 490 799 429 825 q 596 729 551 774 q 666 624 640 685 q 692 492 692 563 q 666 355 692 419 q 596 241 640 290 q 490 163 551 192 q 358 133 429 133 q 222 163 286 133 q 108 241 157 192 q 29 355 58 290 q 0 492 0 419 q 29 624 0 563 q 108 729 58 685 q 222 799 157 774 q 358 825 286 825 m 431 467 l 500 539 l 406 539 l 358 633 l 333 539 l 214 539 l 311 467 l 261 347 l 358 419 l 453 347 l 431 467 z "},"P":{"ha":524,"x_min":0,"x_max":531,"o":"m 289 4 l 90 4 l 54 563 l 0 581 l 18 939 q 222 974 126 979 q 388 927 318 968 q 494 816 458 886 q 521 659 531 746 q 447 474 511 572 q 253 276 383 375 l 289 4 m 235 563 q 265 593 256 569 q 275 646 275 617 q 265 702 275 675 q 235 743 256 729 l 235 563 z "},"Q":{"ha":858,"x_min":0,"x_max":858,"o":"m 715 3 l 646 72 q 542 18 604 33 q 411 3 481 3 q 249 40 324 3 q 119 143 174 78 q 32 297 64 208 q 0 486 0 385 q 32 674 0 586 q 119 828 64 763 q 249 931 174 893 q 411 968 324 968 q 574 931 499 968 q 705 828 650 893 q 791 674 760 763 q 822 486 822 586 q 818 378 822 432 q 789 271 814 325 l 858 200 l 715 3 m 268 521 q 281 456 268 488 q 315 399 293 424 q 367 358 338 374 q 429 343 396 343 q 483 358 457 343 q 528 399 508 374 q 560 456 549 424 q 572 521 572 488 q 560 594 572 561 q 528 651 549 628 q 483 688 508 675 q 429 700 457 700 q 367 688 396 700 q 315 651 338 675 q 281 594 293 628 q 268 521 268 561 z "},"R":{"ha":551,"x_min":0,"x_max":551,"o":"m 372 -3 l 214 282 l 232 17 l 19 17 l 36 585 l 0 601 l 0 938 q 184 972 97 974 q 337 938 271 969 q 444 850 403 907 q 492 720 485 793 q 467 562 499 647 q 354 388 435 476 l 551 140 l 372 -3 m 214 549 q 246 569 233 549 q 260 615 258 589 q 251 668 261 642 q 214 708 240 694 l 214 549 z "},"S":{"ha":600,"x_min":-14,"x_max":608,"o":"m 263 971 q 427 948 354 983 q 544 844 500 913 q 598 681 588 775 q 575 483 608 588 q 519 496 556 490 q 444 507 482 501 q 351 518 400 513 q 372 581 368 553 q 364 627 375 604 q 314 657 353 650 q 241 647 269 663 q 202 607 213 632 q 198 552 192 582 q 229 501 204 522 q 294 458 254 479 q 401 414 335 436 q 508 342 468 392 q 557 233 549 292 q 537 120 565 175 q 436 33 508 65 q 337 8 389 11 q 237 16 285 4 q 147 54 189 28 q 76 119 104 81 q 36 206 47 157 q 38 311 25 254 q 75 303 44 311 q 140 283 106 294 q 229 257 181 271 q 251 188 229 211 q 299 160 272 165 q 352 168 326 156 q 386 207 378 181 q 366 252 393 229 q 297 295 339 275 q 212 333 256 315 q 142 363 168 350 q 24 481 63 401 q 10 685 -14 560 q 39 797 22 749 q 84 878 56 844 q 155 935 113 913 q 263 971 197 957 z "},"T":{"ha":642,"x_min":0,"x_max":642,"o":"m 642 971 l 624 660 l 439 660 l 439 0 l 167 0 l 221 678 l 0 660 l 18 953 l 642 971 l 642 971 z "},"U":{"ha":717,"x_min":-3,"x_max":718,"o":"m 390 939 q 501 950 447 944 q 597 962 547 956 q 681 975 646 968 q 700 803 689 903 q 715 594 711 703 q 708 379 718 486 q 664 188 697 272 q 569 52 631 104 q 408 0 508 0 q 232 47 306 0 q 110 172 158 94 q 38 351 63 250 q 5 561 13 453 q 5 777 -3 669 q 31 975 13 885 l 285 903 q 270 830 281 885 q 252 703 260 775 q 244 551 244 631 q 256 405 243 471 q 301 296 269 339 q 390 253 332 253 q 446 292 426 253 q 472 394 465 332 q 472 535 478 457 q 455 689 467 613 q 426 832 443 765 q 390 939 408 899 z "},"V":{"ha":794,"x_min":0,"x_max":794,"o":"m 0 935 l 283 969 l 406 547 l 547 969 l 794 899 l 406 0 l 0 935 l 0 935 z "},"W":{"ha":849,"x_min":0,"x_max":849,"o":"m 72 0 l 0 976 l 325 958 l 307 560 l 432 832 l 540 560 l 540 958 l 849 976 l 776 0 l 576 18 l 432 381 l 271 0 l 72 0 l 72 0 z "},"X":{"ha":899,"x_min":0,"x_max":899,"o":"m 899 844 l 592 379 l 718 72 l 503 0 l 413 126 l 342 0 l 106 89 l 269 379 l 0 828 l 324 954 l 447 683 l 611 971 l 899 844 l 899 844 z "},"Y":{"ha":797,"x_min":0,"x_max":797,"o":"m 560 971 l 797 869 l 272 4 l 51 174 l 289 514 l 0 818 l 238 954 l 425 701 l 560 971 l 560 971 z "},"Z":{"ha":1082,"x_min":0,"x_max":1082,"o":"m 496 244 l 603 244 l 993 600 l 797 -4 l 0 -4 l 356 456 l 300 581 l 444 563 l 533 689 l 389 689 l 69 403 l 211 971 l 1082 971 l 656 456 l 708 351 l 585 351 l 496 244 l 496 244 z "},"A":{"ha":578,"x_min":0,"x_max":578,"o":"m 397 958 l 578 1 l 325 1 l 307 272 l 253 253 l 253 1 l 0 19 l 143 976 l 397 958 m 253 471 l 307 471 l 271 615 l 253 471 z "},"B":{"ha":569,"x_min":0,"x_max":576,"o":"m 428 419 q 514 317 488 379 q 535 194 540 256 q 494 81 531 132 q 390 8 457 29 q 313 0 363 1 q 213 1 263 -1 q 88 8 154 3 l 53 560 l 0 579 l 17 933 q 219 974 124 974 q 388 943 314 974 q 509 857 463 913 q 566 731 556 801 q 544 579 576 660 q 428 419 513 499 m 231 560 q 261 591 251 567 q 271 644 271 615 q 261 699 271 672 q 231 739 251 726 l 231 560 m 267 153 q 289 174 281 158 q 297 208 297 189 q 286 245 297 226 q 249 278 275 264 l 267 153 z "},"C":{"ha":781,"x_min":0,"x_max":781,"o":"m 781 281 q 715 169 754 221 q 628 78 676 117 q 523 19 579 40 q 407 -3 467 -3 q 247 38 321 -3 q 117 146 172 78 q 31 304 63 214 q 0 494 0 394 q 31 681 0 594 q 117 833 63 768 q 247 935 172 897 q 407 972 321 972 q 523 953 467 972 q 628 899 579 933 q 715 815 676 864 q 781 707 754 767 l 533 635 q 483 692 518 676 q 407 707 447 707 q 356 694 381 707 q 310 658 331 681 q 278 602 290 635 q 265 531 265 569 q 278 464 265 496 q 310 407 290 432 q 356 367 331 382 q 407 351 381 351 q 460 363 433 351 q 514 388 486 375 l 781 281 z "},"D":{"ha":418,"x_min":0,"x_max":422,"o":"m 0 972 q 162 932 89 969 q 288 835 235 894 q 372 698 340 775 q 413 538 404 621 q 408 371 422 454 q 351 214 393 288 q 240 83 310 140 q 71 -3 171 26 l 71 547 l 18 564 l 0 972 m 196 351 q 248 385 229 358 q 269 441 267 411 q 253 497 271 471 q 196 529 235 522 l 196 351 z "},"a":{"ha":499,"x_min":0,"x_max":499,"o":"m 343 828 l 499 1 l 281 1 l 265 235 l 218 218 l 218 1 l 0 17 l 124 843 l 343 828 m 218 407 l 265 407 l 233 532 l 218 407 z "},"b":{"ha":488,"x_min":0,"x_max":493,"o":"m 367 358 q 440 271 418 324 q 458 165 463 218 q 423 68 454 113 q 335 6 392 24 q 268 -1 311 0 q 182 0 225 -1 q 75 6 132 1 l 46 478 l 0 494 l 14 799 q 188 833 106 833 q 333 806 269 832 q 436 733 396 781 q 485 624 476 685 q 466 495 493 564 q 367 358 439 426 m 197 478 q 224 504 215 483 q 232 549 232 525 q 224 597 232 574 q 197 632 215 621 l 197 478 m 228 129 q 248 148 240 135 q 256 177 256 161 q 245 209 256 193 q 213 236 235 225 l 228 129 z "},"c":{"ha":676,"x_min":0,"x_max":676,"o":"m 676 243 q 619 146 653 190 q 544 68 586 101 q 453 16 501 35 q 353 -3 404 -3 q 214 32 278 -3 q 102 126 150 67 q 27 263 54 185 q 0 428 0 342 q 27 590 0 514 q 102 722 54 665 q 214 810 150 778 q 353 842 278 842 q 453 825 404 842 q 544 778 501 808 q 619 706 586 747 q 676 613 653 664 l 463 550 q 419 599 450 586 q 353 613 389 613 q 308 601 331 613 q 269 570 286 590 q 240 522 251 550 q 229 460 229 493 q 240 401 229 429 q 269 352 251 374 q 308 317 286 331 q 353 304 331 304 q 399 314 375 304 q 446 335 422 324 l 676 243 z "},"d":{"ha":360,"x_min":0,"x_max":367,"o":"m 0 836 q 179 778 103 832 q 300 642 256 724 q 356 462 344 560 q 340 272 367 364 q 244 106 313 181 q 61 -3 175 31 l 61 471 l 15 485 l 0 836 m 168 301 q 213 331 197 308 q 231 378 229 353 q 217 426 232 404 q 168 456 203 449 l 168 301 z "},"e":{"ha":463,"x_min":0,"x_max":463,"o":"m 432 449 l 263 478 l 263 386 l 354 401 l 339 310 l 263 278 l 246 218 l 400 263 l 385 64 l 15 1 l 46 510 l 0 542 l 63 818 l 463 849 l 432 449 l 432 449 z "},"f":{"ha":464,"x_min":0,"x_max":464,"o":"m 435 479 l 263 479 l 278 417 l 371 449 l 371 293 l 278 261 l 294 14 l 31 -1 l 46 510 l 0 540 l 63 835 l 464 850 l 435 479 l 435 479 z "},"g":{"ha":700,"x_min":0,"x_max":700,"o":"m 683 532 q 698 473 696 497 q 700 425 700 449 l 700 349 q 656 211 689 275 q 576 100 624 147 q 470 26 529 53 q 349 0 411 0 q 211 34 275 0 q 101 126 147 68 q 27 262 54 185 q 0 425 0 339 q 27 585 0 510 q 101 715 54 660 q 211 803 147 771 q 349 835 275 835 q 538 773 453 835 q 669 607 624 711 l 457 547 q 417 594 446 582 q 365 607 389 607 q 268 566 308 607 q 228 456 228 525 q 239 399 228 426 q 269 351 250 372 q 313 316 288 329 q 365 303 338 303 q 417 322 389 303 q 457 365 446 342 l 304 379 l 304 532 l 472 532 l 683 532 l 683 532 z "},"h":{"ha":547,"x_min":0,"x_max":547,"o":"m 379 0 l 349 196 l 272 182 l 258 14 l 29 14 l 0 833 l 272 790 l 258 394 l 333 410 l 318 833 l 532 833 l 547 14 l 379 0 l 379 0 z "},"i":{"ha":275,"x_min":0,"x_max":275,"o":"m 33 1 l 0 844 l 275 861 l 228 1 l 33 1 l 33 1 z "},"j":{"ha":592,"x_min":-7,"x_max":594,"o":"m 331 826 q 418 833 375 829 q 495 839 454 836 q 565 842 536 842 q 585 662 576 760 q 590 465 594 564 q 563 275 586 367 q 488 114 539 183 q 367 21 429 44 q 246 9 304 -3 q 137 63 188 21 q 53 165 86 104 q 6 301 19 226 q 8 453 -7 375 l 222 390 q 215 335 217 368 q 224 272 214 301 q 260 227 235 243 q 331 222 285 211 q 377 267 363 229 q 394 358 392 304 q 390 478 397 413 q 373 608 383 543 q 351 730 363 672 q 331 826 339 788 z "},"k":{"ha":583,"x_min":0,"x_max":583,"o":"m 583 767 l 322 353 l 568 138 l 385 0 l 215 200 l 215 15 l 31 0 l 0 846 l 246 846 l 231 553 l 353 814 l 583 767 l 583 767 z "},"l":{"ha":408,"x_min":0,"x_max":408,"o":"m 15 832 l 257 832 l 211 301 l 408 347 l 378 44 l 0 0 l 15 832 l 15 832 z "},"m":{"ha":724,"x_min":0,"x_max":724,"o":"m 661 826 l 724 -3 l 447 13 l 464 244 l 369 43 l 263 244 l 263 13 l 0 -3 l 63 811 l 232 826 l 353 504 l 492 811 l 661 826 l 661 826 z "},"n":{"ha":531,"x_min":0,"x_max":531,"o":"m 235 842 l 328 608 l 328 842 l 515 842 l 531 -1 l 343 -1 l 281 125 l 281 -1 l 0 -1 l 63 842 l 235 842 z "},"o":{"ha":350,"x_min":-97,"x_max":447,"o":"m 185 693 q 288 673 240 693 q 372 617 336 653 q 427 534 407 582 q 447 431 447 486 q 427 322 447 374 q 372 233 407 271 q 288 172 336 194 q 185 149 240 149 q 76 172 128 149 q -13 233 25 194 q -74 322 -51 271 q -97 431 -97 374 q -74 534 -97 486 q -13 617 -51 582 q 76 673 25 653 q 185 693 128 693 m 242 411 l 296 468 l 222 468 l 185 542 l 165 468 l 71 468 l 147 411 l 108 317 l 185 374 l 260 317 l 242 411 z "},"p":{"ha":435,"x_min":0,"x_max":442,"o":"m 240 4 l 75 4 l 44 468 l 0 483 l 15 781 q 185 810 106 814 q 323 772 265 806 q 411 679 381 738 q 433 549 442 621 q 371 394 424 476 q 210 231 318 313 l 240 4 m 194 468 q 220 494 211 474 q 229 538 229 514 q 220 584 229 561 q 194 618 211 607 l 194 468 z "},"q":{"ha":733,"x_min":0,"x_max":733,"o":"m 611 3 l 551 63 q 463 16 515 29 q 351 3 410 3 q 213 35 276 3 q 101 122 149 67 q 27 253 54 178 q 0 415 0 329 q 27 576 0 501 q 101 708 54 651 q 213 796 149 764 q 351 828 276 828 q 491 796 426 828 q 602 708 556 764 q 676 576 649 651 q 703 415 703 501 q 699 324 703 369 q 674 232 696 278 l 733 171 l 611 3 m 229 446 q 240 390 229 417 q 269 341 250 363 q 313 306 288 319 q 367 293 338 293 q 413 306 390 293 q 451 341 435 319 q 478 390 468 363 q 489 446 489 417 q 451 557 489 515 q 367 599 414 599 q 269 557 308 599 q 229 446 229 515 z "},"r":{"ha":472,"x_min":0,"x_max":472,"o":"m 319 -3 l 183 242 l 199 14 l 17 14 l 31 500 l 0 515 l 0 803 q 158 832 83 833 q 288 803 232 831 q 380 728 344 776 q 421 617 415 679 q 399 481 426 554 q 303 332 371 408 l 472 119 l 319 -3 m 183 469 q 210 486 200 469 q 223 526 221 503 q 215 572 225 549 q 183 606 206 594 l 183 469 z "},"s":{"ha":515,"x_min":-12,"x_max":521,"o":"m 225 828 q 365 807 303 838 q 465 718 428 776 q 512 578 503 660 q 493 408 521 497 q 444 419 476 414 q 381 429 413 425 q 301 438 343 435 q 318 492 315 467 q 312 531 321 513 q 269 557 303 550 q 206 549 231 563 q 173 515 182 536 q 169 467 164 493 q 196 424 175 442 q 253 386 218 404 q 344 349 288 368 q 436 286 401 329 q 478 194 471 243 q 460 97 485 144 q 374 22 436 49 q 245 1 313 -6 q 125 40 178 7 q 44 131 72 74 q 32 261 15 188 q 64 253 38 261 q 119 238 90 246 q 196 214 154 226 q 215 156 196 175 q 257 132 233 136 q 302 138 281 128 q 331 171 324 149 q 314 210 338 190 q 255 247 290 229 q 181 279 219 264 q 121 306 143 294 q 21 406 54 338 q 7 582 -12 474 q 33 678 18 638 q 72 749 49 719 q 133 797 96 778 q 225 828 169 815 z "},"t":{"ha":543,"x_min":0,"x_max":543,"o":"m 543 821 l 528 558 l 371 558 l 371 0 l 140 0 l 186 574 l 0 558 l 15 806 l 543 821 l 543 821 z "},"u":{"ha":624,"x_min":-3,"x_max":625,"o":"m 340 818 q 438 828 392 822 q 520 837 478 832 q 593 849 563 842 q 610 699 600 786 q 622 517 619 611 q 616 330 625 422 q 578 164 607 238 q 495 45 549 90 q 356 0 442 0 q 202 41 265 0 q 97 150 139 82 q 33 306 54 218 q 4 489 11 394 q 4 676 -3 583 q 26 849 11 769 l 249 786 q 235 723 244 771 q 220 612 226 675 q 213 479 214 549 q 223 352 211 410 q 262 257 235 294 q 340 219 289 219 q 389 254 372 219 q 410 343 406 289 q 411 465 415 397 q 397 600 407 533 q 371 724 386 667 q 340 818 356 782 z "},"v":{"ha":689,"x_min":0,"x_max":689,"o":"m 0 810 l 246 840 l 351 475 l 475 840 l 689 779 l 351 0 l 0 810 l 0 810 z "},"w":{"ha":721,"x_min":0,"x_max":721,"o":"m 61 0 l 0 829 l 276 814 l 261 475 l 367 707 l 458 475 l 458 814 l 721 829 l 660 0 l 490 15 l 367 324 l 231 0 l 61 0 l 61 0 z "},"x":{"ha":771,"x_min":0,"x_max":771,"o":"m 771 724 l 507 325 l 615 63 l 431 0 l 354 108 l 293 0 l 90 76 l 231 325 l 0 710 l 278 818 l 383 586 l 524 832 l 771 724 l 771 724 z "},"y":{"ha":678,"x_min":0,"x_max":678,"o":"m 476 826 l 678 740 l 232 4 l 43 149 l 246 438 l 0 696 l 201 813 l 361 597 l 476 826 l 476 826 z "},"z":{"ha":926,"x_min":0,"x_max":926,"o":"m 425 208 l 517 208 l 850 513 l 682 -4 l 0 -4 l 304 389 l 257 496 l 381 481 l 457 589 l 333 589 l 60 344 l 181 831 l 926 831 l 561 389 l 607 300 l 500 300 l 425 208 l 425 208 z "},"G":{"ha":814,"x_min":0,"x_max":814,"o":"m 794 618 q 812 549 810 578 q 814 494 814 521 l 814 406 q 763 245 800 319 q 670 117 725 171 q 547 31 615 63 q 406 0 479 0 q 246 40 319 0 q 117 148 172 81 q 31 305 63 215 q 0 494 0 394 q 31 680 0 593 q 117 831 63 767 q 246 933 172 896 q 406 971 319 971 q 521 952 465 971 q 625 899 576 933 q 713 815 674 864 q 778 706 751 765 l 531 636 q 512 669 524 656 q 485 690 500 682 q 455 702 471 699 q 425 706 439 706 q 363 693 392 706 q 313 658 335 681 q 278 602 290 635 q 265 529 265 569 q 278 465 265 496 q 313 408 290 433 q 363 368 335 383 q 425 353 392 353 q 485 375 453 353 q 531 425 518 397 l 354 442 l 354 618 l 549 618 l 794 618 l 794 618 z "},"E":{"ha":529,"x_min":0,"x_max":529,"o":"m 494 513 l 300 547 l 300 442 l 406 460 l 388 354 l 300 318 l 282 249 l 458 300 l 440 72 l 18 1 l 53 583 l 0 619 l 71 936 l 529 971 l 494 513 l 494 513 z "},"F":{"ha":532,"x_min":0,"x_max":532,"o":"m 497 549 l 301 549 l 318 478 l 425 514 l 425 336 l 318 300 l 338 17 l 35 -1 l 53 583 l 0 619 l 72 956 l 532 974 l 497 549 l 497 549 z "}}}
